<svg xmlns="http://www.w3.org/2000/svg" width="96" height="96" fill="none"><g fill="#000" clip-path="url(#a)"><path d="M29.105 44.936h1.135l-.567-1.46-.568 1.46Zm-1.184 1.431 1.652-3.9h.43l1.652 3.9h-.864l-.38-.977h-1.482l-.386.977h-.622Zm3.97-.18-.065-.705c.378.317.776.475 1.195.475.239 0 .418-.046.54-.139a.472.472 0 0 0 .063-.688c-.143-.168-.392-.271-.989-.555-.529-.251-.793-.617-.793-1.097 0-.335.116-.602.347-.8.507-.435 1.345-.27 1.429-.255.16.03.315.075.465.137l.067.671a2.244 2.244 0 0 0-.504-.278c-.537-.2-1.11-.064-1.11.393 0 .224.145.377.446.53.69.347 1.017.48 1.264.79.302.377.319 1.11-.168 1.491-.254.199-.604.297-1.052.297-.587 0-.98-.182-1.134-.268Zm3.746.18v-3.425c-.322.006-.663.029-1.18.093l.046-.567h3.023l.045.567c-.653-.08-1.003-.09-1.184-.093v3.425h-.75Zm3.933-.388c.612 0 1.167-.486 1.167-1.563 0-.09.023-.953-.548-1.372a1.02 1.02 0 0 0-.62-.19c-.816 0-1.167.752-1.167 1.562 0 1.07.553 1.563 1.168 1.563Zm0 .475c-1.174 0-1.984-.844-1.984-2.038s.817-2.038 1.984-2.038c1.166 0 1.983.827 1.983 2.038 0 1.211-.808 2.038-1.983 2.038Zm2.589-.087v-3.9h.408l2.352 2.65v-2.65h.555v3.9h-.413l-2.346-2.655v2.655h-.556Zm5.411 0 .441-3.9h.402l1.398 2.72 1.35-2.72h.401l.442 3.9h-.8l-.225-2.41-1.102 2.25h-.363l-1.118-2.223-.226 2.382h-.6v.001Zm5.953-1.431h1.135l-.568-1.46-.567 1.46Zm-1.184 1.431 1.652-3.9h.43l1.651 3.9h-.864l-.38-.977h-1.48l-.387.977h-.622Zm4.836-2.125c.107.017.212.027.314.027.641 0 .8-.365.8-.682 0-.478-.343-.678-.832-.678-.088 0-.182.005-.28.016v1.317h-.002Zm-.748 2.125V42.5c.218-.026.482-.05.88-.05.354 0 .66.041.921.123.379.12.826.389.826.975 0 .244-.076.462-.228.653a1.234 1.234 0 0 1-.636.407l1.382 1.759h-.91l-1.233-1.667h-.254v1.667h-.75l.002.001Zm4.07 0v-3.425c-.322.006-.663.029-1.179.093l.045-.567h3.023l.045.567c-.65-.08-1.002-.09-1.184-.093v3.425h-.75Zm2.445-3.902h.75v3.9h-.75v-3.9Zm1.52 3.902v-3.9h.409l2.352 2.65v-2.65h.555v3.9h-.413l-2.346-2.655v2.655h-.556Z"/><path d="M95.832 37.902c-.254-.447-.753-.702-1.37-.702H55.776c-.653 0-1.64 0-2.666 1.018-.335.334-.522.664-.687.956-.319.565-.548.972-1.606.972h-5.637c-1.058 0-1.287-.408-1.606-.972-.165-.292-.35-.624-.687-.956-1.026-1.018-2.013-1.018-2.666-1.018H1.54c-.617 0-1.115.255-1.37.702-.254.445-.222 1.014.086 1.52l.698 1.154c.376.637.87.736 1.232.808.33.066.527.105.782.546L3.58 43c.476.875 1.05.982 1.467 1.062.323.06.626.087 1.035.826.4.72 1.001 1.807 2.462 2.239l14.433 4.175c1.502.483 1.896 1.033 2.365 1.722.28.409 1.019 1.492 2.853 1.983l13.724 3.678c1.469.393 2.397-.32 2.825-.695l2.49-2.338c.341-.321.557-.447.766-.447.209 0 .424.126.766.447l2.49 2.338c.43.378 1.36 1.086 2.824.694l13.724-3.678c1.835-.49 2.575-1.575 2.853-1.983.467-.68.852-1.235 2.366-1.722l14.433-4.175c1.46-.433 2.064-1.52 2.461-2.24.392-.706.685-.76.995-.818.413-.077 1.014-.163 1.506-1.068l.614-1.07c.253-.441.452-.48.781-.546.362-.072.857-.17 1.233-.808l.697-1.153c.307-.509.34-1.076.087-1.521ZM69.41 41.055v6.72H26.591v-6.72h42.82ZM54.053 57.651c-1.056 0-1.421-.898-1.69-1.603-.306-.803-2.003-6.089-2.472-7.54h2.11c1.15 1.914 3.223 5.35 4.129 6.76.162.25.62 1.031 1.454 1.508-3.254.872-3.171.874-3.53.874Zm4.995-1.356c-1.183 0-1.804-.906-2.181-1.493-.775-1.205-2.532-4.103-3.849-6.294h2.344c1.48 1.559 4.607 4.85 5.838 6.07.186.185.583.603 1.157.92-2.852.763-2.864.797-3.31.797Zm4.794-1.267c-.922 0-1.566-.605-2.025-1.062-1.084-1.075-3.658-3.774-5.256-5.457h2.565c1.631 1.19 5.394 3.926 6.872 4.928.272.184.805.51 1.431.703-3.309.887-3.238.89-3.587.89v-.002Zm6.036-2.528c-.424.623-.737.931-1.453.931-.66 0-1.37-.328-1.934-.71-1.225-.83-4.046-2.87-5.89-4.212h3.051c3.742 1.854 5.312 2.68 6.387 2.99.193.056.37.095.538.12-.28.279-.477.562-.699.882V52.5Zm1.136-1.716c-.857 0-1.968-.562-5.411-2.276h3.336l4.677 1.183c.318.082.612.152.884.209-2.62.757-3.017.883-3.486.883Zm9.142-2.519c-2.766.8-3.212.975-3.995.975-.521 0-1.207-.098-2.326-.386h-.003l-3.684-.933v-1.306l10.008 1.65Zm2.857-.826c-.882.22-1.702.147-2.997-.074h-.002l-9.864-1.628v-1.039l16.129 1.797-3.266.944Zm6.082-3.001c-.125.225-.25.44-.388.642-.562.756-.909.717-2.637.52l-15.922-1.773v-.98l18.36 1.067.888.056a3.8 3.8 0 0 0-.301.468Zm3.122-2.97s-.34.591-.513.895c-.533.858-.799.844-2.357.737l-19.199-1.12v-.79H92.4a2.757 2.757 0 0 0-.181.277h-.001Zm2.721-2.527-.503.833c-.352.55-.491.55-1.68.55H52.784c.428-.485.536-.992.994-1.446.752-.746 1.404-.744 1.999-.744H94.46c.268 0 .468.083.551.228.084.148.056.364-.074.58ZM43.933 57.442c.167-.243.321-.559.523-1.089.313-.824 2.071-6.295 2.57-7.844h1.949c.5 1.549 2.257 7.02 2.57 7.844.202.532.358.848.524 1.09a2.918 2.918 0 0 1-.178-.145l-2.477-2.327c-.388-.364-.828-.701-1.413-.701-.585 0-1.025.337-1.414.701l-2.478 2.327a2.991 2.991 0 0 1-.177.143l.001.001Zm-5.516-.665c.835-.478 1.293-1.258 1.455-1.508.906-1.409 2.979-4.846 4.129-6.76h2.11c-.468 1.452-2.166 6.736-2.472 7.54-.268.705-.634 1.603-1.69 1.603-.36 0-.277-.002-3.532-.874Zm-4.772-1.28c.573-.316.971-.734 1.157-.919 1.23-1.22 4.358-4.51 5.837-6.07h2.344c-1.316 2.19-3.072 5.09-3.848 6.294-.377.587-.998 1.493-2.181 1.493-.444 0-.458-.034-3.31-.797Zm-5.073-1.359a5.597 5.597 0 0 0 1.432-.703c1.477-1.001 5.242-3.737 6.872-4.927h2.565c-1.599 1.684-4.172 4.383-5.256 5.457-.459.456-1.104 1.062-2.025 1.062-.35 0-.28-.002-3.588-.89v.001Zm-3.147-2.521c.167-.024.344-.063.538-.119 1.075-.31 2.645-1.137 6.386-2.99h3.052c-1.844 1.341-4.664 3.38-5.89 4.212-.564.381-1.276.71-1.934.71-.717 0-1.029-.308-1.453-.932-.222-.32-.421-.602-.699-.882v.001Zm-3.924-1.716c.273-.057.566-.126.885-.209l4.677-1.183H30.4c-3.443 1.715-4.556 2.276-5.411 2.276-.47 0-.867-.125-3.487-.883Zm4.352-3.286v1.306l-3.684.933h-.002c-1.12.29-1.805.387-2.327.387-.781 0-1.228-.174-3.995-.975l10.008-1.65v-.001Zm-16.129-.12 16.13-1.797v1.04l-9.865 1.625h-.002c-1.296.222-2.115.294-2.997.076l-3.266-.944Zm-3.118-2.527c.377-.022.748-.048.887-.055l18.36-1.067v.98L9.932 45.6c-1.729.196-2.077.235-2.638-.521a8.03 8.03 0 0 1-.387-.643 3.915 3.915 0 0 0-.301-.468ZM3.604 41.19h22.25v.79l-19.198 1.12c-1.557.107-1.824.12-2.357-.738l-.513-.895a2.713 2.713 0 0 0-.18-.277h-.002ZM.989 38.362c.082-.144.283-.228.551-.228h38.685c.596 0 1.247-.002 1.999.744.457.455.566.962.994 1.445H3.248c-1.189 0-1.328 0-1.68-.549l-.503-.833c-.13-.215-.158-.432-.074-.58l-.002.001Z"/></g><defs><clipPath id="a"><path fill="#fff" d="M0 0h96v96H0z"/></clipPath></defs></svg>