<svg xmlns="http://www.w3.org/2000/svg" width="96" height="96" fill="none"><path fill="#fff" d="M19 15.34v1.509l29.5-5.009L78 16.853v-1.512L48.5 9.886 19 15.341Z"/><path fill="#E30518" d="M78 16.839 48.5 11.83 19 16.84l.073 4.94s14.823-6.424 29.427-6.424 29.427 6.424 29.427 6.424L78 16.84Z"/><path fill="#1D1E1C" d="M48.5 15.156c-18.43 0-29.427 6.512-29.427 6.512l.223 14.822c0 6.802 2.229 35.752 29.204 51.51 26.99-15.762 29.204-44.698 29.204-51.51l.223-14.822S66.935 15.16 48.5 15.16"/><path fill="#FCEA19" d="M76.82 22.73s-9.589-6.1-28.32-6.1-28.32 6.1-28.32 6.1l.296 13.755c0 5.391 1.034 34.264 28.024 49.93 26.99-15.666 28.024-44.544 28.024-49.93l.296-13.76v.005Z"/><path fill="#1D1E1C" d="M47.835 18.914s-.03.32-.107.504c-.068.17-.257.291-.243.403.015.111.136.247.32.344.185.097.258.17.447.218.175.044.394.175.462.024.063-.145-.034-.33-.141-.504-.185-.3-.277-.373-.549-.795-.058-.087-.107-.184-.19-.199"/><path fill="#1D1E1C" d="M46.451 51.66c.02-.053.456.224.68.355.48.286.694.455 1.117.77.33.253.495.384.83.674.412.354.636.66.743.587.16-.194-.263-.756-.636-1.057a11.845 11.845 0 0 0-1.03-.732c-.374-.247-.407-.305-.966-.679-.597-.402-1.117-.907-1.117-.907l-.587-.46-.913-.771-1.015-.936-.767-.853s-.597-.727-.69-.868c-.096-.14-.373-.592-.606-.974a13.6 13.6 0 0 0-.646-.922c-.218-.261-.713-.155-1.286-.494-.7-.412-.87-.79-.87-.79s-.029-.059-.053-.088c-.024-.029-.082-.068-.082-.068l-.364-.257-.21-.14s-.16-.131-.359-.218a9.573 9.573 0 0 1-.645-.35l-.801-.509-.418-.334c-.107-.083-.306-.194-.306-.194s-.126-.063-.165-.068a3.72 3.72 0 0 1-.204-.02s-.155-.038-.31.146c-.156.184-.122.087.135 1.125.102.412.093 1.852.2 2.293.14.568.534 1.295.577 1.382.04.087.068.403.068.403s-.014.256.01.416c.121.747 1.214.257 1.456 1.276.238 1.008-.14 2.016-.14 2.016s-.238.5-.568.578c-.33.077-.845-.655-1.214-1.246-.364-.582-.665-1.348-.763-1.59-.097-.243-.145-.297-.257-.476-.165-.262-.296-.213-.48-.626-.185-.412-.02-.581-.107-.94-.049-.204-.093-.223-.15-.504-.064-.286-.142-1.193-.142-1.193l-.116-.844s-.039-.383-.092-.625c-.185-.844-.248-1.658-.248-1.658l-.034-.335-.014-.344s-.01-.17.029-.34c.043-.17.126-.315.126-.315s.17-.286.199-.354c.03-.067.379-.47.379-.47s.18-.15.48-.334c.296-.185.568-.17.568-.17s.078-.01.607.058c.53.068 1.617.354 1.889.427.272.072.592.184.806.3.602.33.786.19.306-.184-.326-.252-.413-.364-.675-.606-.219-.199-.393-.334-.559-.524-.165-.189-.636-.877-.636-.877l-.29-.432s-.161-.174-.185-.189c-.025-.014-.107-.077-.107-.077s-.194.01-.393-.03c-.2-.038-.297.243-.297.243s-.437.81-.873 1.304c-.714.805-1.229 1.353-1.491 1.78-.369.596-.287 1.246-.476 1.546-.111.18-.17.204-.233.36-.184.465.49.722.335 1.24-.243.82-2.17 1.634-2.428 1.498-.262-.14-.048-1.25.044-1.61.092-.358.36-.891.384-.916a.822.822 0 0 0 .111-.257c.02-.106.03-.344.04-.48.014-.135.067-.344.067-.344s.01-.043.18-.417c.17-.368.796-1.231 1.248-2.056.296-.538.417-.863.713-1.4.272-.495.738-1.247.738-1.247s.2-.383.292-.528c.092-.146.291-.422.476-.694.184-.276.233-.48.475-.703.204-.189.34-.286.602-.373.394-.126.66-.058 1.059.053.417.117.699.306.97.529.273.223.472.475.472.475l.13.194.083.048.253.16.578.383 1.442.98c.072.048.315.252.369.267.048.014.412-.379 1.126-.873.83-.572 1.121-.529 1.393-.679.272-.15.384-.271.598-.485.32-.32.32-.49.684-.94.364-.447.71-.699.71-.699s.048-.048.703-.785c.65-.737.942-1.29.942-1.29l.36-.717s.519-1.11.684-1.552c.165-.441.165-.587.165-.587s.024-.116-.102-.339c-.126-.223-.262-.121-.51-.073-.476.102-.762-.024-1.243-.106-.442-.078-.67-.204-1.112-.282-.446-.077-.709-.145-1.155-.101a1.36 1.36 0 0 0-.272.058c-.252.082-.32.107-.51.213-.218.102-.36.136-.602.14-.165 0-.267.01-.422-.053a.669.669 0 0 1-.248-.145.614.614 0 0 1-.116-.136c0-.048-.02-.043.024-.121s.102-.087.102-.087l.204-.049s.286-.077.315-.082c.025-.005.301-.097.423-.136.121-.039.257-.107.257-.107s.073-.116.044-.184c-.034-.078-.2-.082-.2-.082s-.227.082-.257.087c-.024.005-.388.121-.388.121s-.286.063-.515.117c-.223.053-.543.077-.543.077l-.098-.024s-.111-.073-.126-.146l-.039-.198c-.048-.282-.102-.456-.038-.737.029-.117.053-.18.106-.291a2.07 2.07 0 0 1 .127-.228l.18-.286.334-.49c.117-.116.19-.174.33-.252.214-.121.335-.155.602-.184.263-.03.297-.024.666-.107.368-.082.636-.228.636-.228s.883-.325 1.427-.591c.568-.277.816-.572 1.403-.805.248-.097.389-.14.646-.209a.107.107 0 0 0 .058-.077c.024-.092-.121-.136-.218-.126-.088.01-.287.102-.335 0-.04-.078.184-.126.184-.126s.102-.049.107-.107c0-.087-.15-.03-.219-.039-.344-.039-.369-.102-.606-.16-.282-.068-.432-.155-.724-.17-.257-.01-.5.044-.66.083-.16.039-.165-.116-.102-.145.451-.209.461-.228.777-.243.175-.005.417.03.442.044.024.014.373-.005.466-.092.087-.088-.287-.083-.462-.156-.165-.063-.412-.082-.407-.189.004-.106.126-.048.213-.072.107-.025.17-.025.282-.04.199-.028.218-.043.51-.072.296-.024.718.097.718.097s.442.199.66.3c.219.103.481.156.481.156s.306.043.544-.102c.238-.146.107-.242.02-.373-.083-.126-.185-.306-.03-.655.136-.3.204-.65.243-.683.044-.04.233.227.354.344.432.402 1.005.6 1.544 1.45.044.067.243-.04.874.058.631.097 1.17.766 1.311.926.14.16.325.155.325.155l.302.039 1.092.019s.495-.087.782.02c.199.072.869.518.563.688-.214.121-.413-.14-.607-.155-.228-.015-.325.029-.53.077-.422.107-1.334.383-1.004.495.029.01.073.02.073.02l.165.023s.398.093.64.19c.365.145.535.305.874.499.19.111.277.223.486.286.194.058.315 0 .514.034.258.048.404.097.641.213.35.17.481.374.797.602.16.111.29.13.407.286.03.034.049.048.064.092.043.14-.233.058-.38.034-.16-.025-.227-.107-.373-.175-.218-.102-.325-.218-.563-.257-.175-.034-.277-.005-.457 0-.17.01-.267.034-.437.039-.29 0-.46-.024-.747-.082-.325-.068-.48-.195-.806-.262-.36-.073-1.005-.383-.942-.078.03.15.374.276.374.276s.228.127.451.224c.224.096.345.242.345.242l.155.116s.16.218.364.46c.204.243.564.238.564.238s.218 0 .684.097c.466.097.947.384.947.384s.364.247.578.499c.209.247.087.378.063.402-.024.024-.02.015-.044.024-.024.015-.286-.315-.286-.315l-.185-.16s-.184-.126-.422-.203c-.238-.078-.316-.024-.316-.024s-.505.14-.942.126c-.437-.015-.665-.185-.665-.185l-.276-.184s-.418-.388-.428-.204c-.01.127.185.262.185.262s.136.136.223.218c.165.165.233.248.427.417.194.175.316.175.316.175l.14.034c.04.005.107.024.107.024s.064.024.365.146c.3.12.621.383.621.383s.034.024.078.034c.044.004.136.048.16.058.024.005.102.005.277.034.175.024.107.135.107.135l-.034.044-.141.097s-.185.053-.316.058c-.13.005-.306-.063-.306-.063l-.388-.145s-.389-.102-.471-.117a18.538 18.538 0 0 1-.495-.097 2.123 2.123 0 0 1-.282-.101c-.044-.025-.136-.044-.345-.146-.208-.102-.296-.223-.558-.305-.262-.083-.422-.102-.621.039-.34.232.514.271.942.484.626.31.975.539 1.126.868.15.335.301.456.301.456s.442.223.64.456c.108.126.122.228.234.354.243.28.709.266.806.509.087.223-.379.126-.627.102-.436-.044-.543-.442-.956-.607-.233-.092-.379-.092-.617-.174-.432-.14-.63-.33-1.063-.46-.257-.078-.733-.427-.68-.16.015.062.049.116.068.154.02.04.127.18.127.18s.145.194.213.242c.063.054.345.262.743.48.398.218.743.636.743.636s.117.17.17.285c.058.131.02.175.107.36.092.184.13.218.247.334.292.281.593.223.967.378.102.039.106.058.218.175.107.116-.02.164-.02.164s-.412.107-.68.083c-.344-.03-.5-.136-.84-.3-.339-.166-.519-.466-.548-.486-.029-.019-.116-.106-.18-.155-.063-.043-.228-.077-.378-.121-.15-.039-.238-.048-.384-.087-.204-.058-.417-.146-.51-.18-.096-.034-.315-.072-.48.025-.32.189.495.32.753.591.13.136.184.233.305.378.097.107.136.19.248.277.082.058.223.12.223.12s.2.088.486.248.626.606.626.606l.204.31.121.18.034.082.044.102s.146.194.257.257c.107.063.088.121.088.121s-.015.04-.088.083c-.077.043-.116.005-.223-.025-.107-.033-.18-.135-.277-.213-.097-.077-.199-.271-.378-.378-.156-.092-.36-.126-.437-.155-.078-.024-.267-.146-.345-.18l-.277-.12s-.383-.219-.597-.277c-.209-.058-.078.068-.078.068s.19.295.374.417c.238.155.568.295.461.421-.072.083-.17.054-.281.04-.175-.02-.389-.233-.389-.233s-.087-.059-.485-.185-.248.088-.16.204c.087.116.209.18.209.18l.267.12.12.04s.108.019.467.101c.36.083.558.257.558.257s.194.18.461.378c.268.2.54.248.685.267.146.02.14.121.14.121s.02.097.016.126c-.005.034-.04.059-.073.059-.034 0-.044.014-.083.033-.039.02-.19.044-.19.044s-.402-.014-.718-.087c-.315-.078-.587-.296-.616-.306a3.602 3.602 0 0 0-.52-.237c-.199-.063-.51-.039-.544-.024-.034.014-.14.034-.325.082-.184.053.044.121.044.121l.136.015.32.024s.325.039.607.14c.282.102.461.306.646.49.184.184.388.306.388.306l.146.097.078.058.019.053s-.005.024-.02.058c-.014.034-.058.059-.058.059s-.073-.015-.102-.015c-.029 0-.242-.111-.398-.18-.16-.072-.243-.135-.417-.179a1.487 1.487 0 0 0-.389-.039 6.006 6.006 0 0 1-.621.078c-.248.02-.471.024-.767-.014-.423-.054-.986-.384-1.054-.291-.146.194.301.252.515.373.296.17.81.325.81.325s.374.082.598.184c.48.223.626.553 1.01.902.213.194.383.276.67.32.247.034.242.005.63-.068.39-.073.632-.446.744-.315.024.029.014.053.004.087-.004.039-.038.107-.038.107s-.044.063-.117.135c-.068.068-.34.219-.48.277-.141.058-.486.155-.923.14-.437-.014-1.044-.344-1.044-.344l-.442-.184s-.204-.097-.34-.145c-.364-.136-.597-.127-.97-.224-.234-.063-.384-.126-.598-.17-.209-.043-.092.04-.068.073.102.131.233.175.398.258.224.106.379.087.607.179.253.102.476.247.612.34.14.091.243.188.379.334l.466.397s.107.088.121.126c.015.04.063.136.039.287-.024.155-.155.043-.155.043l-.122-.078-.121-.116-.2-.16s-.164-.155-.45-.3c-.287-.146-.637-.185-.637-.185s-.306-.043-.296.054c.015.097.083.102.325.165.243.063.403.184.403.184s.248.184.428.388c.18.203.228.402.228.402s.087.165.32.393c.228.223.35.145.34.257-.014.106-.116.126-.116.126s-.059-.005-.083-.005c-.024 0-.083-.034-.146-.058-.063-.025-.306-.194-.306-.194s-.378-.306-.422-.34l-.403-.3s-.209-.136-.364-.213a4.085 4.085 0 0 0-.47-.194c-.117-.04-.326-.054-.326-.054s-.258-.038-.408-.097c-.243-.092-.53-.354-.558-.368-.034-.015-.263-.087-.306-.083-.044.005-.146.437-.17.684-.102 1.038.17 1.726.602 2.676.621 1.382 2.345 3.103 2.345 3.103s.432.248.617.393c.514.402 1.369.975 2.126 1.726.646.645 1.51 1.794 1.51 1.794s.495.694.728 1.183c.282.601.51 1.518.51 1.518s.02.16.039.194c.02.034.063.072.092.072l.301.01c.034 0 .374-.024.597-.082.229-.059.763-.3 1.112-.485.355-.184.777-.543.777-.543s.078-.068.49-.524c.413-.46.68-1.149.782-1.406.097-.262.18-.756.243-1.605.063-.848-.054-1.75-.054-1.75s-.155-1.251-.247-1.678c-.092-.426-.32-1.12-.32-1.12s-.156-.62-.21-1.013a12.258 12.258 0 0 1-.058-1.023s0-.393.127-1.11c.126-.718.568-1.44.568-1.44s.121-.243.597-.81c.485-.577.64-.674 1.117-1.018.378-.272.873-.713 1.034-.611.174.111-.175.335-.292.45-.296.297-.859.82-1.31 1.606-.394.683-.54 1.134-.637 1.575-.097.447-.058.931-.043 1.101.014.165.106.107.106.107s.962-.771 1.481-1.353c.564-.63 1.069-1.755 1.263-1.765.13-.005.194.296.165.432-.126.581-.165.654-.355 1.042-.218.446-.417.645-.718 1.052-.32.432-.471.596-.729 1.164-.364.814-.155 1.445-.155 1.445s.044.383.219.378c.29-.01.922-.81 1.335-1.464.306-.48.417-1.033.621-1.324.18-.257.34.417.262.82-.092.474-.325.901-.84 1.57-.504.66-.49 1.28-.49 1.28s-.053.286-.097.907c-.039.62.136 1.561.136 1.561s.16.786.19 1.382c.028.596.009 1.959-.55 3.016-.223.426-.699 1.013-.699 1.013s-.364.378-.67.596c-.3.219-1.024.558-1.024.558s-.5.175-.568.19c-.073.014-.117.077-.117.077s.049.097.064.135c.019.04.16.384.16.384s.15.49.209.877c.058.383-.01.475-.068.77-.054.282-.18.151-.21.709-.028.49.2.737.156 1.29-.02.242-.291-.301-.422-.534-.282-.509-.214-1.28-.224-1.469a2.61 2.61 0 0 0-.092-.65 2.188 2.188 0 0 0-.364-.746c-.146-.19-.3-.3-.354-.282-.054.015-.054.122-.059.17 0 .049.102.233.127.272.024.038.208.378.208.378s.083.257.112.766c.034.504-.121 1.13-.121 1.13s-.204.703-.418 1.12c-.238.455-.762 1.076-.762 1.076s-.379.344-.66.911c-.282.568-.04.815-.146.883-.107.073-.33-.325-.393-.596-.054-.248-.03-.369.072-.65.098-.272.326-.66.326-.66l.34-.577s.403-.78.534-1.343c.126-.562-.015-1.187-.015-1.187s-.02-.204-.16-.2c-.14.006-.243.132-.301.282-.117.31.049.252-.131.771-.141.407-.18.354-.253.591-.087.291-.136.587-.13.767.004.179-.093.106-.093.106s-.17-.32-.17-.722c0-.218.01-.34.034-.553.039-.349.18-.882.18-.882s.155-.524.121-1.009c-.034-.48-.204-.567-.204-.567s-.043-.068-.228-.054c-.184.015-.18.345-.18.345s-.058.475-.13.77c-.205.82-.481 1.247-.967 1.935-.437.62-1.034 1.169-1.33 1.426-.296.257-1.21.926-1.21.926l-1.067.712s-.423.413-.622.907c-.194.495-.184.878-.073 1.329.112.45.277.664.364.785.088.126.253.35.306.606.034.16.01.257.02.422.01.14.029.223.024.364 0 .228.039.388-.092.577-.097.14-.355.261-.355.261s-.29.126-.46.233c-1.822 1.1-2.467 1.809-3.496 3.03-.326.388-.088.369-.438.83-.208.276-.694.276-.873.606-.243.45.553.897-.37 1.294-1.184.514-3.228.146-3.272-.014-.111-.442.398-.95.578-1.145.83-.911 1.578-.93 1.85-1.682.058-.16.034-.296.699-.785.466-.345 2.326-1.741 3.136-2.672.277-.32.52-.533.641-.878a.537.537 0 0 0-.121-.567l-.335-.543-.641-1.14s-.267-.605-.418-.955c-.145-.349-.427-1.294-.427-1.294s-.204-.844-.243-1.396c-.063-.994.073-1.566.335-2.531.34-1.251 1.107-1.775 1.413-3.006.088-.36.107-.975-.072-.946-.175.03-.19.519-.321.844-.49 1.227-1.146 1.765-1.505 3.035-.243.858-.34 1.372-.335 2.26 0 .508-.02.416.116 1.299.049.33.132.5.229.82.068.222.252.649.252.649s.257.562.345.955c.029.13.063.209.053.344-.014.233.025.286-.087.5-.141.261-.054.417-.505.514-.398.087-1.214-.18-1.214-.18s-3.355-1.018-5.5-.727c-.428.058-.651.213-1.079.203-.388-.004-.587-.31-.976-.193-.082.024-.106.077-.174.126-.568.397-.136 1.052-1.632.708-.917-.209-2.03-.771-1.835-1.125.257-.47.602-.543 1.33-.84.777-.32 1.942-.227 2.17-.242.282-.019.685-.218 1.185-.222.864-.015 1.02.087 1.02.087l1.471.13 2.816.04s.505-.04.704-.078c.204-.039.364-.437.471-.626.107-.189 0-.465 0-.465l-.087-.131-.267-.431-.496-.834-.548-1.091s-.36-.761-.549-1.266c-.19-.494-.301-.776-.427-1.29-.131-.533-.214-.96-.228-1.386-.025-.611-.063-1.091.106-1.59"/><path fill="#fff" d="M64.726 50.647c.592-.76.646-1.464.685-2.458.024-.722-.248-1.837-.248-1.837l-.039-.083s-.107-.136-.17.044c.01.16.03.28.03.28l.033 1.436s-.043.722-.291 1.47c-.413 1.255-1.515 1.817-1.68 2.263-.272.757.966-.203 1.675-1.12M58.516 52.965s-.242.068-.247.31c0 .238.058.446.053.732-.005.364-.345.79-.126.931.374.238.694-1.43.582-1.677-.111-.248-.223-.296-.262-.296ZM54.336 64.514s-.068-.034-.204.014c-.136.049-.126.19-.126.19s-.03.15.082.164c.107.015.287-.247.287-.28 0-.03-.04-.088-.04-.088ZM50.403 67.307s-.039.038-.005.067c.034.03.088-.01.088-.01s.68-.528 1.083-.901a20.348 20.348 0 0 0 1.038-1.086s.04-.053-.004-.097c-.049-.044-.166.024-.258.073-.087.043-.136.092-.199.145-.063.053-.262.257-.262.257l-.524.51-.326.305-.32.305-.136.155-.044.073-.043.063s-.049.049-.049.058c0 .01-.014.03-.014.044 0 .014-.01.034-.01.034M49.228 68.073s-.072-.058-.19 0a.82.82 0 0 0-.247.237c-.01.02-.072.102-.029.18.044.072.19-.04.214-.04.02 0 .213-.15.213-.15s.112-.067.044-.222M46.98 70.352s-.092-.18-.223-.107c-.126.073-.194.097-.31.257-.02.029-.146.189-.17.228-.025.043-.146.276.106.29.432.03.15-.251.301-.358.122-.088.345-.063.35-.15a.303.303 0 0 0-.054-.16ZM39.28 61.27s-.262.063-.282.155c-.019.093.151.185.18.185.03.005.088.072.262-.044.175-.116.165-.218.165-.218s.102-.117-.325-.082M43.519 61.13s0-.097-.19-.083c-.184.01-.228.044-.233.073 0 .03.01.078.18.087.17.015.238 0 .243-.077ZM47.52 61.246c-.336 0-.229.01-.438.02-.378.019-.582 0-.951-.02a17.907 17.907 0 0 1-1.326-.165s-.102-.02-.14.044c-.04.063.096.203.218.242.66.204.694.17 1.146.175.247 0 .388-.02.64-.039.316-.02.462.03.807-.063.087-.024.174-.19.048-.194M49.777 60.577s-.068-.078-.204-.01a.581.581 0 0 0-.223.218s-.064.102.072.083a.817.817 0 0 0 .292-.097c.034-.02.136-.117.063-.199M47.81 33.542s.957-.892 1.637-2.07c.408-.704.582-2.338.233-1.93-.156.184-.345 1.032-.646 1.663-.432.897-1.35 2.162-1.35 2.162s-.194.422.127.18M44.004 35.806s-.102.078-.053.204c.043.126.242.029.242.029s.437-.165.899-.184c.46-.02 1.102.12 1.102.12s.306.083.36.103c.052.019.218.101.242.111.029.01.184.087.272.01.087-.083-.554-.664-1.214-.757-1.097-.15-1.816.325-1.816.325l-.034.04ZM39.484 39.666c.078.063.447-.63.752-1.072.224-.325.637-.863.637-.863s.184-.247-.127-.107c-.126.058-.476.32-.723.81-.209.412-.617 1.173-.539 1.236M36.95 36.635s-.078.267.237.606c.316.34.399.62.602.417.059-.053-.199-.514-.33-.64-.13-.126-.223-.228-.223-.228l-.082-.068-.107-.058-.059-.024s-.019-.014-.038-.005ZM35.925 34.046s-.345.063-.427.228c-.083.165.393.063.393.063s.32.02.325-.102c.01-.121-.038-.136-.29-.189ZM30.473 43.07c-.17-.054-.204.295-.224.401-.024.112.078.335.117.335.039 0 .18-.218.19-.325.009-.107.077-.363-.083-.412ZM36.134 49.784s-.31-.247-.36-.15c-.048.097.258.533.258.533s.092.14.238.078c.145-.068.092-.223.092-.223s-.097-.204-.223-.238M33.774 42.516s-.082-.019-.111.078c-.03.097-.025.252-.049.441-.014.15.039.543.039.543s.029.31.092.5c.068.203.248.49.248.49s.068.15.15.14c.083-.01.063-.107.063-.107s-.262-1.037-.272-1.144c-.029-.344-.029-.766-.029-.766v-.063s-.005-.107-.136-.112M34.182 39.346s-.146-.03-.277.247c-.13.28-.106.392-.092.407.015.014.117.01.287-.247.17-.257.13-.354.13-.354s-.009-.053-.043-.053M38.154 42.22s.174.258-.16.2c-.336-.059-1.04-.611-1.321-.762-.287-.15-.748-.199-.554-.368.034-.03.044-.059.102-.063.059 0 .248.072.263.082.01.005.504.209.524.213.02.005.296.127.49.243.2.116.52.34.52.34l.136.116ZM47.408 50.177c.092.286-1.054-.606-1.666-1.076-1.626-1.251-3.617-3.811-3.37-4.04.205-.188 1.025.99 2.22 2.28 1.276 1.381 2.762 2.666 2.816 2.836ZM52.185 48.955c-.354.378-.48.863-.277 1.227.2.354.262-.514.486-.771.19-.218.306-.184.626-.412.54-.378-.383-.524-.835-.044ZM50.15 40.868c-.242-.039-.232.33-.198.596.16 1.174.69 2.08 1.393 2.934.427.518 1.607 1.444 1.743 1.294.049-.053-1.121-.955-1.864-2.114-.53-.824-.811-1.522-.874-2.201-.01-.087.01-.475-.2-.51ZM45.597 23.447c-.53.291-1.452.543-1.452.543s-.044.092.073.083c.786-.063 1.087-.165 1.51-.345.422-.184.728-.683.728-.683s.17-.31-.15-.054a6.317 6.317 0 0 1-.714.466M51.996 21.425s-.18-.038-.301.034c-.122.078-.083.136-.083.136s.185.146.32.165c.137.02.423.145.408.048-.014-.096-.174-.276-.228-.324-.053-.049-.116-.063-.116-.063M48.986 26.943c.029.063.568-.082.776-.199.165-.092.224-.397.224-.397s.043-.296-.025-.185c-.305.5-1.005.713-.975.776M48.966 25.566c.219-.417-.597.432-1.01.655-.252.135-.665.31-.665.31s-.112.136.044.126c.15-.01.539.121.85-.121.072-.058.402-.534.402-.534s.277-.232.38-.431M48.84 27.34c.014.069.932.044 1.155-.019.18-.053.277-.368.277-.368s.112-.277.02-.184c-.413.421-1.467.504-1.452.572ZM34.197 35.68s-.141-.048-.311.209c-.17.256-.937 1.42-.801 1.59.16.203.825-1.038 1.03-1.27.203-.233.12-.47.12-.47s0-.054-.038-.059ZM50.913 56.674c-.082.383.02 1.178.146 1.333.325.393.126-.61.17-.965.038-.33.082-.44.242-.795.292-.63-.393-.397-.563.427M48.112 23.026s-.253.004-.452.116c-.199.107-.248.262-.248.262s-.038.111-.014.174c.058.131.33-.068.524 0a.624.624 0 0 1 .345.243c.102.126.286.3.403.198.116-.101.073-.353.073-.353s-.136-.413-.311-.529c-.175-.116-.316-.111-.316-.111M43.912 25.92s-.14.024-.107.194c.034.17.126.145.126.145s.292-.126.277-.3c-.02-.18-.291-.034-.291-.034M41.858 25.004s-.155.005-.262.194c-.107.189-.17.383-.17.383s-.053.252.039.33c.092.077.19-.16.315-.253.078-.058.127-.082.21-.136.11-.077.29.02.276-.203-.015-.223-.252-.33-.408-.315ZM48.49 22.618s-.35-.048-.335.083c.015.126.19.048.306.101.112.049.185.068.272.15.063.059.058.175.136.175.112 0 .087-.043.087-.043s-.102-.301-.233-.388c-.13-.088-.238-.078-.238-.078M52.389 24.024c-.049.19-.083.257-.083.257s-.097.388.292.243c.388-.141.19-.083.466-.219.277-.135.272-.063.476-.053.068 0 .111.005.218-.014.087-.02.054-.127-.146-.175-.208-.058-.47-.044-.772-.044-.174 0-.398-.179-.451.01M52.559 22.599s-.18-.039-.301.034c-.122.077-.083.136-.083.136s.185.145.32.164c.137.02.423.146.409.049-.015-.097-.175-.276-.229-.325a.29.29 0 0 0-.116-.063M53.248 25.275s-.189-.039-.325.034c-.131.073-.092.131-.092.131s.199.136.34.155c.145.02.451.136.437.044-.015-.092-.185-.262-.243-.306-.058-.048-.122-.058-.122-.058M53.302 26.245s-.204-.044-.34.039c-.136.082-.097.15-.097.15s.209.155.36.18c.15.024.475.154.46.053-.014-.107-.194-.3-.257-.35a.334.334 0 0 0-.131-.067M53.394 27.195s-.218-.048-.369.044c-.15.092-.102.17-.102.17s.228.179.393.203c.165.024.515.18.5.058-.014-.12-.213-.34-.276-.397a.399.399 0 0 0-.141-.078M53.375 28.364s-.219-.049-.37.043c-.15.092-.101.17-.101.17s.228.18.393.204c.165.024.515.179.5.058-.015-.121-.214-.34-.277-.398a.4.4 0 0 0-.14-.077M53.214 30.647s-.218-.048-.369.044c-.15.092-.102.17-.102.17s.229.179.394.203c.165.024.52.18.5.058-.015-.116-.214-.339-.277-.397-.068-.058-.14-.078-.14-.078M53.36 29.503s-.252-.058-.427.053c-.17.107-.122.194-.122.194s.263.204.452.238c.19.029.597.208.578.068-.015-.136-.243-.393-.326-.46a.417.417 0 0 0-.165-.088M53.103 31.675s-.18-.039-.306.034c-.121.078-.088.14-.088.14s.19.146.326.17c.136.025.427.146.412.049-.014-.097-.174-.276-.228-.33-.053-.048-.116-.063-.116-.063ZM52.933 32.664s-.15-.034-.253.03c-.102.062-.072.116-.072.116s.155.12.267.14c.111.02.354.121.344.04-.01-.083-.145-.234-.19-.272a.323.323 0 0 0-.096-.054ZM52.724 33.566s-.136-.029-.228.03c-.092.057-.063.101-.063.101s.14.111.242.126c.102.015.316.111.311.034-.01-.073-.13-.209-.17-.242-.043-.04-.087-.049-.087-.049M52.505 34.308s-.135-.03-.228.029c-.092.058-.063.102-.063.102s.141.111.243.126c.102.014.32.111.31.034-.009-.073-.13-.209-.17-.243-.038-.038-.087-.048-.087-.048M52.248 35.166s-.111-.024-.184.02c-.073.048-.054.082-.054.082s.112.087.195.102c.082.014.257.087.247.029-.005-.058-.107-.17-.14-.199-.035-.03-.069-.039-.069-.039M51.942 35.966s-.092-.02-.155.02c-.063.038-.044.072-.044.072s.097.078.17.087c.068.01.224.078.214.025-.005-.054-.092-.146-.122-.17-.029-.024-.058-.034-.058-.034M51.622 36.732s-.092-.02-.16.02c-.064.038-.044.072-.044.072s.097.078.17.087c.068.01.223.078.213.025-.004-.049-.092-.146-.12-.17-.03-.024-.06-.034-.06-.034ZM30.963 40.61s-.16.311-.082.48c.077.17.29-.27.29-.27s.224-.437.132-.52c-.092-.082-.146.146-.345.31"/><path fill="#1D1E1C" d="M43.077 67.762s-.117-.155-.233-.043c-.112.111-.258.29-.525.276a1.358 1.358 0 0 1-.52-.121c-.145-.063-.349-.16-.349-.16s-.534-.204-.985-.218c-.452-.01-1.19.18-1.55.562-.358.388-.446.786-.446.786s-.121.703.083 1.028c.204.324.427.669.927.974.495.305.714.417.714.417l.864.398.801.3s1.156.344 1.297 1.217c.14.873-.384 2.003-1.977 2.104-1.568.102-2.33-.659-2.578-1.144-.242-.49-.102-.902-.102-.902l.068-.135.059-.03s.242.165.48.136c.238-.029.68-.32.588-.785-.093-.47-.515-.572-.714-.558-.204.02-1.097.252-1.117 1.557-.02 1.304 1.17 1.997 1.17 1.997s.845.524 1.797.48c.951-.043 1.738-.422 1.738-.422s1.408-.703 1.447-2.23c.039-1.532-.932-2.065-.932-2.065s-.35-.243-.666-.393c-.315-.146-1.082-.514-1.082-.514l-.777-.354-.471-.262-.262-.174s-.631-.495-.291-1.028c.334-.538 1.306-.335 1.306-.335s.752.16 1.335.577c.587.422.927.926.927.926l.243.398.029.053.209-.073s-.326-.901-.384-1.28c-.058-.378-.121-.96-.121-.96ZM52.37 72.921s.208.233.49.233c.282 0 .684-.194.68-.703-.005-.504-.52-.64-.52-.64s-.777-.184-1.155.606c-.38.785-.17 1.47-.17 1.47s.175 1.06 1.3 1.686c1.122.63 2.327.165 2.327.165s.903-.3 1.684-1.178c.782-.878 1.156-1.92 1.156-1.92l.276-.684h.33s.457.049.782-.213a2.39 2.39 0 0 0 .525-.62l.043-.112-.208-.097s-.238.31-.568.34c-.33.028-.67-.025-.67-.025l.315-.848s.37-.737.471-.907c.102-.17.53-.718.53-.718s.878-.005 1.728-.184a8.873 8.873 0 0 0 1.374-.393l1.048-.431.258-.14-.078-.21s-.947.335-2.345.495c-1.398.16-2.277-.014-2.277-.014l-1.588-.243s-.48-.077-.854-.087c-.374-.005-1.131.136-1.131.136s-.758.17-1.098.427c-.34.257-1.155.853-.781 1.77.373.916 1.893.426 2.107-.253-.005.005.087-.218.087-.218l.024-.121-.126-.049-.155.18s-.568.475-1.005.17c-.437-.306-.14-.733-.097-.781.044-.049.281-.335.85-.466.567-.126 1.422.078 1.422.078l.927.17s.515.097.54.097c.024 0 .189.024.189.024l-.326.359s-.47.45-.8 1.105c-.331.65-.481.994-.481.994l-.03.048s-.417.049-.68.209c-.261.16-.431.402-.431.402l-.122.219.165.14s.19-.213.423-.276c.233-.063.407.029.407.029s-.334.829-.495 1.13c-.16.3-.427.848-.806 1.255-.378.408-.655.761-1.52.883-.864.12-1.475-.432-1.703-.708a1.85 1.85 0 0 1-.374-.994c-.015-.306.145-.596.145-.596"/><path fill="#008D3F" d="M48.5 8 19 13.595v1.77l29.5-5.45 29.5 5.45v-1.77L48.5 8Z"/></svg>