<svg xmlns="http://www.w3.org/2000/svg" width="96" height="96" fill="none"><path fill="#D6001C" fill-rule="evenodd" d="M50.686 13c-19.51 0-35.314 15.804-35.314 35.319 0 .697.023 1.37.05 2.045h-4.609c-.257 0-.39.156-.49.34-.079.178-4.174 7.383-4.275 7.562-.078.18-.078.285.128.285h10.7c4.38 14.506 17.85 25.082 33.81 25.082C70.196 83.633 86 67.829 86 48.319 86 28.809 70.196 13 50.686 13ZM25.452 58.55h9.407l-4.536 7.852a28.207 28.207 0 0 1-4.87-7.852Zm25.234 16.997c-7.411 0-14.098-2.953-19.02-7.75h7.646s21.968-38.709 22.046-38.86c.106-.156.055-.261-.1-.261H52.29c-.179 0-.206.055-.257.133-.055.078-12.387 21.555-12.387 21.555H23.53a25.025 25.025 0 0 1-.078-2.045c0-15.03 12.176-27.234 27.228-27.234 7.669 0 14.612 3.188 19.56 8.32-2.15 3.628-11.79 20-13.084 22.385-.752-1.738-4.224-1.398-6.012-1.426-.78 1.293-4.43 8.187-4.43 8.187s2.017-.028 3.833 0c1.766.027 1.972 1.866 1.27 3.031-.7 1.165-3.576 6.214-3.576 6.214h9.25s11.35-19.821 17.8-31.09a26.853 26.853 0 0 1 2.613 11.608c0 15.03-12.2 27.229-27.228 27.229l.009.004Z" clip-rule="evenodd"/></svg>