<svg xmlns="http://www.w3.org/2000/svg" width="96" height="96" fill="none"><path fill="#1D1D1B" fill-rule="evenodd" d="M73.461 22.543C66.661 15.747 57.621 12 48.004 12s-18.66 3.747-25.46 10.543C15.746 29.343 12 38.385 12 48.003c0 9.616 3.747 18.654 10.543 25.454C29.344 80.257 38.387 84 48 84c9.613 0 18.656-3.747 25.457-10.543C80.257 66.657 84 57.615 84 48.002c0-9.612-3.747-18.659-10.543-25.455l.004-.004ZM48.092 81.885c-9.407 0-17.91-3.483-24.075-9.647-2.202-2.203-4.163-4.576-5.686-7.2-2.698-4.646-4.308-9.968-4.501-15.777-.027-.767-.01-1.96.008-2.799-.166 0-1.43 2.365-1.456 4.265h-.005a35.909 35.909 0 0 1 .983-11.521c1.593-6.314 4.91-11.986 9.39-16.475a35.56 35.56 0 0 1 25.254-10.459c18.84 0 34.337 15.777 34.337 35.8 0 8.314-3.216 16.053-8.542 22.086-7.262 8.222-17.068 11.727-25.707 11.727Z" clip-rule="evenodd"/><path fill="#1D1D1B" fill-rule="evenodd" d="M81.394 46.897c-.281-8.793-4.054-16.628-9.758-22.468-4.353-4.457-12.448-10.31-23.544-10.31-.276 0-.54.005-.54.005-8.577.342-16.269 3.676-22.016 8.857-6.63 5.976-10.702 14.562-10.702 24.214 0 18.317 12.838 31.387 30.463 32.492.895.057 1.795.088 2.707.088 11.364 0 21.28-5.95 26.927-14.89a3.545 3.545 0 0 0 1.373-.544c.03-.281.062-.917-.197-1.483 2.128-4.006 3.413-8.608 3.641-13.491.057-1.233.031-2.55-.061-3.769.228 1.983 1.527 4.256 1.69 4.251.017-.982.03-2.233.008-2.948l.009-.004Zm-55.66-21.165c5.637-5.637 13.039-8.875 20.959-9.195l-4.041 28.166a.463.463 0 0 1-.172.303L20.086 62.612c-2.338-4.453-3.576-9.433-3.576-14.605 0-8.415 3.278-16.321 9.227-22.27l-.004-.005Zm50.188 36.876-22.538-17.69c-.062-.057-.088-.11-.106-.259l-3.97-28.11c-.448-.399-.685-.701-1.308-.85v31.606c0 .083-.004.193.026.223.04.04.167-.004.268-.057 0 0 2.988-1.522 3.98-1.987.294-.132.394-.066.666.131 2.826 2.12 20.508 15.365 22.829 17.102.088.066.118.132.193.386.048.163.132.636.079 1.075L48.61 48.353s-.092-.057-.158-.013c-.04.026-.048.066-.053.171-.057 1.044-.158 3.348-.263 4.607-.035.447-.035.732-.132.732-.096 0-.096-.29-.136-.732-.118-1.286-.232-3.593-.28-4.611-.005-.092-.014-.123-.057-.145-.066-.03-.11-.009-.207.048-3.523 2.032-24.68 14.22-27.3 15.733.356.351.764.527 1.379.724l26.601-10.683L74.615 64.87a31.68 31.68 0 0 1-4.34 5.392c-5.949 5.95-13.86 9.227-22.27 9.227-8.412 0-16.322-3.277-22.272-9.227A35.99 35.99 0 0 1 23 67.14a31.396 31.396 0 0 1-1.589-2.255c-.807-.044-1.408-.334-1.702-.553-.079-.549.075-1.075.184-1.352.167-.127 19.643-14.684 22.89-17.11.307-.228.395-.307.715-.158 1.18.54 4.046 2.15 4.107 2.058.084-.123-3.506-2.585-3.751-2.883-.202-.245-.11-.925-.088-1.15.11-.93 3.15-27.477 3.163-27.587.093-.105.207-.223.343-.337.491-.4.732-.492.732-.492.281.127.891.4 1.308 1.207 7.924.32 15.326 3.558 20.964 9.196 5.95 5.949 9.227 13.859 9.227 22.27a31.365 31.365 0 0 1-3.576 14.605l-.005.009Z" clip-rule="evenodd"/></svg>