<svg xmlns="http://www.w3.org/2000/svg" width="96" height="96" fill="none"><path fill="#1434CB" d="M51.356 29.556C51.356 23.174 46.103 18 39.622 18H25.384v23.309c.218.172.424.359.611.564 1.616 1.78 1.763 4.8.327 6.733-.284.382-.601.744-.938 1.09v4.38c.158-.091.32-.187.487-.285.102-.061.23-.14.333-.208.065-.042.292-.201 1.066-.805 1.417-1.106 3.182-2.485 5.129-2.936a12.98 12.98 0 0 1 1.27-.256V24.721H37.9c3.059 0 5.383 2.29 5.383 5.117s-2.479 5.119-5.54 5.119h-1.922v9.356l2.335 3.616c.233-.2.468-.412.705-.627l.047-.044.05-.042c1.823-1.493 3.724-2.175 6.148-2.2l.167-.157-2.855-4.078c5.131-1.235 8.938-5.792 8.938-11.226v.001ZM67.615 18H54.308v22.145c.232-.14.47-.293.713-.448.472-.303.997-.64 1.556-.936l.09-.047.09-.039c1.003-.43 2.159-.66 3.344-.66.883 0 1.743.134 2.507.385V24.72h5.195c2.282 0 4.13 2.095 4.13 4.386 0 2.29-1.849 4.145-4.13 4.145h-2.705v6.343c.205.133.429.286.681.463l.083.059.203.169h3.993c2.764 0 4.854 2.239 4.854 5.013-.033.96-.255 1.815-.642 2.541 1.149 1.413 2.594 3.272 3.447 4.668l.03.053c.372.642.707 1.466.925 2.23 2.867-2.053 4.715-5.271 4.715-8.884 0-4.454-1.564-7.631-6.812-10.075 2.13-1.995 3.433-4.666 3.433-7.604 0-2.66-1.02-5.105-2.805-7.023C75.345 19.151 72.057 18 67.615 18ZM51.66 70.898c.154.223.3.55.443.864.225.498.419.928.647 1 .093.03.2.045.32.045.518 0 1.238-.282 1.754-.688.293-.247.198-.409.069-.632a4.207 4.207 0 0 1-.427-1.055c-.144-.5-.266-.93-.801-.853-.767.11-1.51.162-2.338.162-.01 0-.27.002-.35.182-.09.211.118.405.34.61.125.114.254.234.344.367v-.002ZM13.736 73.445a.206.206 0 0 0-.078.015c-.437.18-.946.752-.971 1.09-.11 1.489-.153 1.646-.558 2.101-.114.128-.19.42-.062.55.112.113 1.57.579 1.732.579l.033-.004c.131-.04.238-.374.533-1.4.159-.553.34-1.178.54-1.747.014-.035.017-.09-.116-.28-.17-.242-.734-.905-1.051-.905h-.002Z"/><path fill="#1434CB" d="m83.864 71.053-.898-.451c-1.064-.624-1.678-1.659-2.273-2.66-.233-.391-.475-.798-.736-1.168-.172-.252-.463-.514-.72-.746-.225-.202-.437-.392-.475-.497-.973-2.664-2.031-5.798-2.289-9.28-.04-.533-.411-1.697-.85-2.456-1.382-2.259-4.687-6.128-4.867-6.32-.115-.123-.24-.247-.35-.352l-.088-.087-5.947-4.96c-1.183-.831-1.544-.98-2.398-1.29a5.546 5.546 0 0 0-1.87-.304c-.842 0-1.683.163-2.374.46-.472.25-.935.547-1.382.833-.76.488-1.545.991-2.4 1.278-.663.299-1.381.522-2.074.737-1.35.42-2.744.853-3.85 1.87a80.56 80.56 0 0 0-.806.755c-1.02.967-1.127 1.067-1.965 1.067-1.937 0-3.31.476-4.736 1.646-1.132 1.033-2.255 1.997-3.56 2.451-.585.203-1.235.278-1.923.347-.989.087-1.14.096-2.079.32-1.41.326-2.905 1.49-4.173 2.48-.414.323-.97.752-1.232.923-.135.088-.301.192-.434.27-1.573.923-3.058 1.795-4.96 1.795l-.14-.001c-1.419-.102-2.713-1.085-3.146-2.389-.4-1.466.03-2.967 1.18-4.121.549-.55 1.171-1.083 1.774-1.597.973-.83 1.892-1.615 2.53-2.474.74-.999.66-2.68-.174-3.599-.831-.915-2.69-1.372-3.389-1.543l-.12-.03c-.069-.018-.193-.032-.258-.049-.443-.087-.867-.147-1.3-.254-1.106-.303-1.96-1.16-2.94-1.69-.378.58-.503 1.21-.453 1.916.188 1.482 1.416 3.02 2.78 3.644l.174.069c.432.186.887.212 1.313.212.092 0 .184 0 .276-.003l.275-.002c.264 0 .577-.003.865.072.265.069.54.33.576.666.022.197-.067.35-.316.544-.23.194-.461.386-.693.577-1.175.974-2.388 1.98-3.375 3.203-1.321 1.432-1.38 3.92-.767 5.532.787 2.126 2.964 3.311 4.77 3.543.321.051.642.076.98.076 1.065 0 2.078-.256 3.06-.505a.425.425 0 0 1 .092-.013c.045 0 .13 0 .145.226.03.439.053.937.074 1.419.035.783.068 1.523.128 1.836.132.697.476 1.544.704 2.104.096.237.173.425.2.518.088.318.005.664-.206.859-.745.684-2.256 1.23-2.534 1.265-.448.056-.924.082-1.272.1a7.186 7.186 0 0 0-.39.026.695.695 0 0 0-.418.196c-.212.207-.445.806-.715 1.5-.163.416-.331.847-.5 1.206-.472.79-1.269 1.253-2.04 1.7-.193.112-.385.224-.57.339l-.021.022c-.318.503-.635.985-1.041 1.344-.318.295-.724.364-1.114.41l-.026.004-.019.02c-.6.691-.793 1.61-.981 2.5-.028.135-.058.271-.088.407l-.026.126.08.007c.315.03.632.099.969.172.442.097.898.196 1.347.196.424 0 .79-.09 1.114-.27.575-.267.88-.794 1.177-1.306.196-.336.397-.684.675-.953a.771.771 0 0 1 .61-.262c.224 0 .47.066.709.13.217.057.442.118.655.13 1.06.058 2.064-.608 2.555-.999.215-.17.428-.371.636-.566.321-.301.653-.614 1.006-.835.43-.206.952-.306 1.594-.306.797 0 1.643.159 2.318.286.361.096.731.143 1.101.143.643 0 1.244-.148 1.736-.427.59-.336 1.185-.648 1.662-.899.279-.147.525-.277.72-.383.849-.468 1.565-1.763 1.834-2.298.25-.499.68-1.579.685-1.59l.02-.05-.99-.758-.041.067c-.006.011-.654 1.083-1.074 1.579-1.742 2.382-4.582 2.688-6.86 2.688a12.187 12.187 0 0 0-.471-.008c-2.824 0-5.098.95-6.759 2.825-.078.089-.212.102-.271.029-.035-.046-.044-.118-.023-.204.046-.196.066-.253.185-.47 1.768-2.516 4.783-2.89 7.214-2.934 1.797-.12 3.104-.433 4.24-1.014 1.457-.744 2.537-2.392 2.96-3.695.28-.857.415-1.771.546-2.654.104-.702.213-1.428.39-2.095a.216.216 0 0 1 .2-.143c.02 0 .039.004.072.015.093.015.267.083.267.219-.245 1.384-.58 3.279.052 4.861.292.626.919.931 1.912.931.602 0 1.259-.104 1.895-.204.49-.079.956-.152 1.357-.17a5.88 5.88 0 0 1 .514-.023c.79 0 1.555.155 2.295.304.644.13 1.312.265 1.995.298.121.006.252.016.389.027.236.02.482.039.73.039.58 0 .988-.114 1.287-.359.21-.171.136-.427.043-.75l-.017-.058a8.317 8.317 0 0 0-.055-.182c-.133-.428-.333-1.076.002-1.374a.31.31 0 0 1 .185-.063c.056 0 .13.018.155.103.038.124.073.25.108.374.147.518.298 1.053.631 1.511.693.89 1.767 1.731 3.1 2.43.855.593 1.893 1.594 1.975 2.986 0 .63-.61 1.071-1.063 1.344-.714.358-1.839.793-2.519.758-.456-.023-.836-.313-.861-.338-.697-.641-.617-.862-1.07-1.625-.241-.405-.492-.824-.805-1.194-.434-.483-.98-.666-1.715-.606-.71.057-1.365.19-2.145.357a.477.477 0 0 0-.349.27.568.568 0 0 0 .041.513c.403.721.796 1.382 1.211 2.08l.185.312c.101.17.312.192.485.192.096 0 .2-.007.307-.014.116-.009.234-.017.353-.017.36 0 .59.085.737.269.123.19.237.396.346.594.272.49.551.997 1.02 1.36.427.378 1.042.595 1.69.595.284 0 .56-.042.818-.124 1.864-.587 3.68-1.19 5.404-2.116h.566c.126-.014.253-.024.381-.034.597-.044 1.213-.089 1.65-.55a19.272 19.272 0 0 0 1.443-2.474c.374-.768.377-1.517.009-2.109-1.1-1.765-1.294-2.23-1.745-3.433l-.012-.033-.034-.01c-.13-.04-.26-.09-.384-.14-.271-.106-.55-.216-.874-.216h-.042c-.378.012-.632.13-.738.341l-.016.032 1.995 3.952c.129.31.275.62.198 1.082-.077.462-1.057 2.005-1.351 2.203-.073.049-.13.073-.173.073-.025 0-.127-.02-.06-.252.187-.64.42-2.149.356-2.632-.072-.56-1.743-3.337-1.814-3.456l-.03-.049c-.258-.422-.525-.858-.502-1.373 0-.235.218-.4.377-.46.29-.11.567-.152.866-.218.709-.157 1.444-.319 1.705-.717.8-1.22 1.276-2.492 1.59-4.252.014-.079.069-.226.18-.226.066 0 .13.022.156.174a6.415 6.415 0 0 1-1.091 4.802.533.533 0 0 0-.07.382c.022.14.181.254.181.254.386.263 1.783.113 2.797-.423.773.016 1.506-.122 2.211-.255.225-.043.447-.085.667-.12.07.04.126.102.139.154-.593.675-.958 1.432-1.145 2.379-.165.169-.348.338-.526.5-.65.599-1.353 1.266-1.386 2.121 0 0-.02.306.31.33.106.01.221-.047.334-.094.122-.049.25-.099.344-.087a.226.226 0 0 1 .19.211l-.74 1.09c-.28.455-.162.94-.048 1.409.083.26.045.463.116.69.185.543.846.802 1.373.802.97-.043 1.85-.363 2.7-.672.151-.055.303-.11.459-.165.933-.404 2.18-.489 3.662-.245 1.192-.076 2.088-.865 2.955-1.635.37.01.756.23 1.15.656 1.289 1.39 2.87 2.064 4.834 2.064.073 0 .146 0 .222-.002l.199-.015c.204-.048.257-.148.27-.277.014-.155-.105-.305-.325-.41l-1.1-.585c-.879-.561-1.837-1.235-2.1-2.124-.286-.947-.817-1.914-1.212-2.558-.076-.126-.163-.25-.255-.38a4.881 4.881 0 0 1-.428-.698l.005-.005c1.198.432 1.867 1.32 2.677 2.8.6 1.101 2.165 2.29 3.647 2.29.194 0 .386-.02.566-.06.16-.036.264-.135.285-.272.018-.122.003-.237-.133-.305h.003ZM62.476 53.275c-.033.118-.105.194-.183.194-.035 0-.118-.016-.149-.167-.311-1.594-.499-2.38-.861-3.114-.118-.238-.26-.434-.387-.608-.268-.366-.497-.682-.238-1.11.075-.126.266-.21.473-.21a.65.65 0 0 1 .28.06c.306.145.604.518.91 1.139.768 1.572.16 3.796.154 3.818l.001-.002Zm9.995 15.894s-.048.452-.259.644c-.211.192-.97.298-1.366.283-.397-.016-.534-.07-.619-.195-.092-.137.059-.405.059-.405.047-.1.516-1.072 1.454-1.325 0 0 .304-.112.59.031.287.143.153.867.142.968l-.001-.001Zm2.72-6.274c-.057.37-.145.548-.193.635-.05.087-.133.282-.407.283-.299 0-.276-.353-.28-.4 0 0-.035-.98-.222-1.393-.203-.45-1.186-1.717-1.752-1.664-.144.014-.513.235-.789.596-.333.434-.332.487-.434.553-.103.066-.236.03-.281-.225-.045-.256-.09-.465.028-.954.12-.49.238-.597.38-.947 0 0 .297-.686.408-.855.304-.464.713-.434.713-.434.11.008.46-.038.838.436.437.549.343.499.466.693.123.195.252.396.613.79.36.394.759 1.163.869 1.64.11.476.102.88.045 1.25l-.001-.004Z"/><path fill="#1434CB" d="M15.35 73.418c.112.093.29.215.543.215.144 0 .298-.04.457-.12.824-.417 1.677-1.952 1.71-2.043.09-.247-.194-.474-.553-.761l-.042-.034c-.156-.126-.444-.109-.636.023l-.4.268c-.427.283-.868.577-1.335.969-.169.14-.261.414-.279.62-.013.165.016.298.085.378.039.043.378.424.45.484Z"/></svg>