<svg xmlns="http://www.w3.org/2000/svg" width="96" height="96" fill="none"><g clip-path="url(#a)"><path fill="#FFD800" d="M47.935 66.008c10.07 0 18.232-8.063 18.232-18.008 0-9.946-8.162-18.008-18.232-18.008-10.069 0-18.232 8.062-18.232 18.008 0 9.945 8.163 18.008 18.232 18.008Z"/><path fill="#FFD800" d="m95.763 60.06-.066-.15c-.022-.095-.036-.21-.05-.325v-.015c-.037-.28-.074-.576-.198-.865-.19-.44-.627-.771-1.11-.865a1.16 1.16 0 0 0-.174-.418c-.3-.432-.76-.735-1.103-.959-.094-.065-.197-.13-.24-.166l-.095-.072a1.262 1.262 0 0 0-.781-.266c-.475 0-.978.295-1.285.677-.05-.137-.138-.454-.19-.634a8.656 8.656 0 0 0-.197-.663v-.03s-.029-.042-.036-.078c-.124-.332-.416-1.11-1.3-1.255a6.014 6.014 0 0 0-.685-.057c-.43-.015-.591-.087-.65-.116.015-.036.03-.094.073-.187.08-.188.132-.353.183-.527.182-.598.306-1.477.16-2.242.205.03.438.05.664.05.723 0 1.482-.15 2.139-.432l.036-.014c1.292-.62 2.57-2.04 2.504-3.82v-.051c-.153-1.536-1.022-2.992-2.642-4.426.423-.109.876-.253 1.284-.534 1.175-.778 1.686-2.177 1.394-3.835l-.022-.108c-.19-.85-.817-.916-1.007-.916a.998.998 0 0 0-.686.274c-.036.036-.08.072-.124.116a2.228 2.228 0 0 1-.3.252c-.255.144-.62.223-1.006.303-.292.057-.62.13-.95.237-1.459.498-2.379 1.276-2.736 2.307-.22.627-.124 1.392.263 2.084l.029.05c.445.7 1.073 1.29 1.627 1.817.789.742 1.526 1.449 1.679 2.292.03.152.073.44-.445.822-.205.115-.49.173-.81.173-.46 0-.986-.13-1.394-.346l-.022-.014c-.643-.318-1.285-.743-1.92-1.161-1.014-.67-2.058-1.362-3.277-1.752-.562-.245-1.16-.36-1.686-.468-.671-.137-1.299-.26-1.744-.606l-.066-.043c-.197-.123-.394-.267-.584-.404-.584-.418-1.248-.894-2.05-1.103a4.366 4.366 0 0 0-.84-.173c-.307-.043-.482-.072-.606-.158l-.394-.282-.022-.014c-.547-.396-1.117-.807-1.715-1.103-1.014-.497-2.05-.75-3.197-.995-.058-.014-.211-.202-.32-.324-.169-.202-.38-.462-.672-.663-.854-.664-1.825-1.276-3.132-1.276-.116 0-.233 0-.335.014-.788.05-1.453.555-1.883.93-.956.829-2 1.572-3.007 2.292-1.562 1.118-3.175 2.271-4.584 3.785-1.474 1.507-2.014 3.388-2.489 5.046-.065.238-.138.476-.211.728-.132.455-.248.923-.358 1.377-.577 2.3-1.124 4.47-3.299 5.868-.35.224-.54.613-.496 1.017.044.404.321.757.708.901.175.065.474.13.832.13.014.238.102.454.263.634.153.173.438.39.941.411h.037c1.496 0 2.561-.85 3.481-1.73.328.281.737.584 1.285.692l.146.029.16-.022c.547-.072 1.022-.137 1.504-.115.438.137.89.303 1.335.468.343.13.694.26 1.059.383l.175.057h.153c.978-.043 1.533-.894 1.737-1.218l.037-.065.029-.065c.036-.08.058-.151.08-.23v.007l.058.202c.132.446.263.915.555 1.261.277.317.657.49 1.088.49.16 0 .306-.021.416-.036h.05c.015.015.03.036.044.05.168.18.431.455.855.585.4.13.802.238 1.196.338.482.123.971.253 1.424.426l.05.014c.351.116.738.224 1.147.216.635 0 1.029-.245 1.357-.511.54-.433.752-.902.876-1.356.08-.014.175-.036.292-.072.664-.216 1.321-1.427 1.321-1.442.044-.086.102-.173.146-.237.168-.246.248-.505.24-.772a1.16 1.16 0 0 0-1.152-1.146h-.103c-.05 0-1.306-.007-1.664 0h-.029c-.16.007-.3.036-.43.08-.008-.008-.015-.022-.022-.03-.095-.115-.197-.382-.336-.447.007-.007.036-.014.051-.021l.35.036c.227.022.453.036.68.036.795 0 1.525-.13 2.225-.252.62-.108 1.24-.05 1.861-.05h.227c.27 0 .54.02.832.05.292.029.62.057.963.057.124 0 .24 0 .35-.014.329-.014.635-.072.92-.159.03.152.066.346.11.577l.043.195c.16.692.409 1.737 1.664 2.544l.19.123c.584.375.934.605 1.81.735.226.036.642.022.905-.036 1.102-.238 2.328.05 3.314.757l.087.058c.08.043.19.137.3.23.226.188.51.426.883.563.248.093.51.144.795.151h.022c.54 0 .832-.166 1.051-.281.037.043.073.101.102.144.154.217.343.483.628.736.533.504 1.197.562 1.65.562.211 0 .415-.015.598-.029.066 0 .139-.007.204-.014.124 0 .241-.015.321-.022.132-.014.22-.036.263-.043.234.166.482.194.591.194.095 0 .19-.014.278-.043l1.043-.339c.3-.093.533-.303.657-.57.227-.497 0-.972-.16-1.311l.007-.044Zm-32.895-5.11c-.029-.044-.05-.08-.08-.116-.03-.05-.066-.094-.11-.159-.153-.23-.291-.425-.357-.605.314.029.642.065.992.08l-.445.8ZM47.359 56.305l-.548-.267c-.474-.281-.788-.807-1.124-1.363-.16-.26-.32-.533-.496-.778-.168-.245-.409-.462-.606-.627-.036-.03-.08-.072-.116-.101-.592-1.593-1.212-3.453-1.365-5.479-.037-.505-.336-1.37-.664-1.925l-.015-.021c-.934-1.507-3.11-4.001-3.233-4.131a3.959 3.959 0 0 0-.248-.245l-.059-.058-3.868-3.18-.059-.042c-.817-.563-1.109-.692-1.744-.923-.992-.353-2.38-.31-3.372.115l-.066.03c-.335.172-.65.374-.948.561-.46.289-.898.57-1.343.714l-.08.029c-.38.166-.81.303-1.234.425-.912.281-1.949.599-2.81 1.37-.212.187-.38.353-.525.483a7.04 7.04 0 0 1-.482.432h-.168c-1.445 0-2.525.368-3.598 1.24l-.037.03c-.657.59-1.299 1.131-1.978 1.369-.277.094-.635.137-1.021.173h-.037c-.65.058-.788.072-1.416.223-1.102.253-2.168 1.067-3.021 1.73-.38.289-.628.476-.73.541-.073.05-.168.108-.241.152-.942.54-1.752 1.016-2.73 1.016h-.05c-.534-.05-1.037-.418-1.212-.887-.161-.612.029-1.225.532-1.73.329-.324.716-.648 1.088-.959.664-.555 1.292-1.08 1.759-1.708.73-.973.657-2.494-.168-3.388-.635-.685-1.73-1.024-2.613-1.233l-.073-.022c-.044-.007-.102-.021-.16-.028h-.052c-.102-.03-.197-.044-.292-.065a8.144 8.144 0 0 1-.481-.094c-.3-.087-.613-.296-.942-.52-.233-.158-.474-.324-.744-.468l-.716-.382-.445.678c-.335.512-.481 1.089-.43 1.752v.05c.16 1.204 1.124 2.458 2.299 2.985l.029.014c.044.014.08.036.124.05.27.109.54.16.788.18-.635.527-1.27 1.09-1.824 1.76-1.08 1.175-1.146 3.092-.65 4.368.635 1.68 2.343 2.617 3.766 2.797.248.036.496.058.76.058.444 0 .868-.058 1.276-.137v.014c.03.635.051 1.031.095 1.276.102.527.343 1.11.504 1.5 0 .014.007.029.014.036a4.72 4.72 0 0 1-.963.432c-.248.03-.525.044-.723.058-.138 0-.248.015-.306.022-.3.036-.57.158-.781.367-.277.267-.438.678-.664 1.255-.088.23-.183.468-.278.663a1.338 1.338 0 0 1-.299.31c-.153-.274-.408-.476-.57-.605l-.028-.022c-.402-.317-1.015-.325-1.46-.029l-.197.13-.051.036c-.277.18-.599.39-.934.67-.22.18-.38.462-.453.764-.08.015-.16.03-.233.058-.526.216-1.124.822-1.168 1.435-.015.223-.044.627-.08.742-.008.007-.022.029-.052.065-.357.397-.46 1.096 0 1.55.307.303 1.504.62 1.738.62h.058l.146-.022.066-.021c.073-.022.146-.05.204-.08l.277.022c.146.014.314.05.518.094.314.065.672.144 1.051.144.41 0 .781-.087 1.117-.267.606-.288.898-.793 1.124-1.168.066-.108.124-.216.19-.302a.365.365 0 0 1 .095.028c.16.044.365.094.591.108.97.051 1.817-.49 2.24-.814.168-.13.322-.274.468-.404.16-.144.32-.295.467-.396.146-.058.35-.087.598-.087.424 0 .905.087 1.292.159.854.209 1.76.115 2.453-.274.372-.21.744-.397 1.043-.555l.051-.029c.16-.087.307-.159.424-.223.7-.375 1.226-1.204 1.54-1.824.153-.31.394-.88.46-1.038h.197c.46 0 .934-.073 1.35-.137.292-.044.562-.087.773-.101h.037c.08-.008.168-.015.248-.015.423 0 1.03.05 1.489.101.387.043.642.08 1.146.101.066 0 .139.007.219.014.16.015.343.03.54.03.51 0 .934-.123 1.277-.289.095.094.255.317.365.41h-.051c-.329 0-.635.13-.84.354-.284-.137-.759-.137-1.19-.1-.51.042-.97.114-1.48.223-.38.079-.665.266-.818.605a1.22 1.22 0 0 0 .058 1.11c.263.469.518.887.788 1.334l.117.195c.124.202.43.548 1.073.548.08 0 .168 0 .263-.015h.03c.014.029.036.058.05.087.197.346.43.771.869 1.11.43.367 1.029.576 1.65.576.27 0 .54-.043.787-.115 1.168-.36 2.307-.735 3.416-1.297h.234c.073-.008.146-.015.219-.015.445-.029 1.116-.08 1.635-.62l.05-.05.037-.058c.205-.288.387-.584.562-.88.008.037.015.073.03.109v.021c.27.757 1.058 1.103 1.73 1.103h.036c.759-.036 1.416-.266 1.992-.476l.037-.014c.08-.029.16-.058.248-.086l.058-.022c.438-.188 1.08-.216 1.854-.094l.102.015h.102c.818-.058 1.445-.447 1.964-.865.985 1.023 2.233 1.542 3.715 1.542h.168l.24-.014.066-.014c.482-.116.81-.476.854-.952.007-.094 0-.188-.007-.274.087-.007.175-.022.262-.043.46-.101.796-.447.869-.894.073-.476-.139-.901-.57-1.11h-.021Zm-12.78-2.423c-.044.037-.088.08-.131.116-.241.216-.555.497-.796.85a8.492 8.492 0 0 1-.387-.692 4.369 4.369 0 0 0 1.117-.317c.066 0 .139 0 .204-.007 0 .014-.007.029-.014.043l.007.007Z"/><path fill="#E2071F" d="M1.976 58.597s-.036 0-.05.007c-.278.116-.607.476-.621.692-.073.938-.095 1.038-.358 1.327-.073.08-.124.267-.036.346.073.072 1.007.367 1.109.367h.022c.088-.028.153-.237.343-.886.102-.346.219-.743.343-1.103.007-.022.007-.058-.073-.18-.11-.152-.474-.57-.671-.57h-.008Zm1.037-.014a.542.542 0 0 0 .35.137c.095 0 .19-.03.292-.08.525-.26 1.073-1.232 1.095-1.29.058-.159-.124-.303-.358-.483l-.03-.022c-.101-.079-.284-.072-.408.015-.087.057-.168.115-.255.173-.278.18-.555.36-.854.612-.11.087-.168.26-.175.39-.008.1.007.187.05.238.023.028.242.266.293.302v.008Zm43.944-1.493c-.262-.13-.576-.28-.576-.28-.686-.397-1.08-1.046-1.46-1.68a9.755 9.755 0 0 0-.474-.736c-.11-.158-.3-.324-.46-.468-.146-.13-.278-.245-.307-.318-.62-1.68-1.306-3.662-1.467-5.86-.022-.34-.262-1.075-.547-1.55-.883-1.428-3.007-3.871-3.124-3.994a3.313 3.313 0 0 0-.226-.224l-.059-.057-3.817-3.129c-.759-.526-.992-.62-1.54-.814a3.684 3.684 0 0 0-1.197-.195c-.54 0-1.08.1-1.525.288-.307.159-.599.346-.883.526-.49.31-.993.628-1.54.808-.424.187-.883.332-1.328.469-.87.266-1.76.54-2.467 1.182-.205.187-.373.346-.519.475-.656.613-.722.671-1.262.671-1.241 0-2.124.303-3.037 1.038-.722.649-1.445 1.262-2.284 1.55-.372.13-.788.173-1.233.216-.635.058-.73.058-1.336.202-.905.21-1.861.937-2.679 1.564-.262.202-.62.476-.788.584-.087.058-.19.123-.277.173-1.007.584-1.964 1.132-3.182 1.132h-.088c-.912-.065-1.737-.685-2.014-1.506-.256-.923.021-1.875.759-2.603.35-.346.751-.685 1.138-1.01.628-.525 1.212-1.016 1.62-1.563.475-.628.424-1.695-.109-2.271-.533-.577-1.722-.865-2.175-.974l-.08-.021c-.044-.015-.124-.022-.168-.029-.285-.058-.555-.094-.832-.159-.708-.194-1.255-.735-1.883-1.066-.241.367-.321.764-.292 1.21.117.938.905 1.904 1.78 2.3l.11.044c.278.115.57.136.84.136h.35c.168 0 .372 0 .555.044.167.043.343.209.372.418.014.122-.044.223-.205.346-.146.122-.299.245-.445.367-.752.613-1.532 1.248-2.167 2.019-.847.901-.884 2.473-.49 3.496.504 1.341 1.898 2.09 3.059 2.235.204.029.416.05.627.05.68 0 1.336-.158 1.964-.317.022 0 .043-.007.058-.007.03 0 .08 0 .095.144.022.274.036.592.044.894.022.498.043.959.08 1.16.088.44.306.974.453 1.327.065.152.109.267.13.325a.545.545 0 0 1-.13.54c-.475.433-1.446.779-1.628.8-.285.037-.591.051-.818.066a1.72 1.72 0 0 0-.248.014.446.446 0 0 0-.27.122c-.138.13-.284.512-.46.945-.102.267-.211.533-.32.764-.307.497-.818.793-1.307 1.074-.124.072-.248.144-.365.216l-.015.015c-.204.317-.408.62-.671.85-.204.188-.467.231-.715.26h-.015l-.015.014c-.386.44-.51 1.017-.627 1.58-.022.086-.037.172-.059.259l-.014.079h.05c.205.022.41.065.621.115.285.058.577.123.861.123.27 0 .504-.058.716-.173.372-.166.569-.505.759-.822.124-.21.255-.433.43-.605a.487.487 0 0 1 .395-.166c.146 0 .299.043.452.079.139.036.285.072.423.08.68.035 1.321-.383 1.643-.628.138-.108.277-.238.408-.36.205-.188.416-.39.643-.527.277-.13.613-.194 1.021-.194.511 0 1.051.1 1.49.18.233.058.466.094.707.094a2.34 2.34 0 0 0 1.117-.267c.38-.21.759-.411 1.066-.57.182-.093.335-.173.46-.245.547-.295 1.007-1.11 1.174-1.449.16-.317.438-.995.438-1.002l.015-.028-.635-.476-.03.043s-.415.685-.685.995c-1.117 1.506-2.942 1.694-4.401 1.694h-.3c-1.81 0-3.27.598-4.335 1.788-.051.057-.139.064-.175.014-.022-.029-.03-.072-.015-.13a.952.952 0 0 1 .117-.295c1.131-1.586 3.065-1.824 4.627-1.853 1.153-.08 1.993-.274 2.723-.642.934-.468 1.627-1.506 1.897-2.335.175-.54.263-1.118.35-1.673.066-.44.14-.9.249-1.319a.148.148 0 0 1 .131-.094.11.11 0 0 1 .044.008c.058.007.168.05.175.136-.16.873-.372 2.07.03 3.072.19.396.59.59 1.226.584.386 0 .81-.065 1.211-.13.314-.05.613-.094.869-.108.11-.008.218-.015.328-.015.51 0 1 .101 1.474.195.416.08.84.166 1.278.187.08 0 .16.007.248.015.153.014.306.021.467.021.372 0 .635-.072.825-.223.131-.108.087-.267.029-.476v-.036s-.037-.072-.044-.115c-.088-.274-.212-.678 0-.865a.204.204 0 0 1 .117-.036c.036 0 .08.014.102.064.022.08.044.159.073.238.095.325.19.663.401.952.446.562 1.132 1.096 1.986 1.535.547.375 1.211 1.01 1.27 1.882 0 .396-.395.677-.68.85-.46.224-1.182.498-1.612.476a1.04 1.04 0 0 1-.555-.216c-.445-.404-.394-.548-.686-1.024-.153-.252-.314-.519-.518-.757-.277-.302-.628-.418-1.102-.382-.453.036-.876.123-1.372.224a.309.309 0 0 0-.227.173.346.346 0 0 0 .03.324c.255.454.51.873.773 1.312l.117.195c.066.108.197.123.314.123.058 0 .124 0 .197-.008.073 0 .153-.007.226-.007.234 0 .38.05.474.173.08.123.154.252.22.375.175.31.35.627.656.858.278.238.672.375 1.08.375.183 0 .358-.03.526-.08 1.197-.367 2.357-.75 3.467-1.333h.365l.24-.022c.38-.029.782-.058 1.059-.346.358-.512.657-1.024.927-1.564.24-.483.24-.959 0-1.334-.708-1.117-.832-1.406-1.117-2.17v-.021h-.029c-.08-.022-.168-.058-.248-.087-.175-.065-.35-.137-.562-.137h-.03c-.24.007-.408.08-.474.216v.022l1.27 2.494c.08.195.175.39.124.685-.05.288-.678 1.269-.868 1.391a.214.214 0 0 1-.11.044c-.014 0-.08-.015-.036-.159.117-.404.27-1.355.226-1.665-.044-.353-1.117-2.105-1.16-2.184l-.022-.03c-.168-.266-.336-.54-.322-.864 0-.152.14-.253.241-.289.19-.072.365-.093.555-.137.453-.1.927-.202 1.095-.454.51-.771.817-1.571 1.022-2.682.007-.05.043-.144.116-.144.044 0 .08.015.103.108a3.996 3.996 0 0 1-.701 3.035.315.315 0 0 0-.044.238c.015.087.117.159.117.159.248.166 1.146.072 1.795-.267.497.007.964-.08 1.416-.158.146-.03.285-.051.43-.08.045.029.081.065.089.094-.38.425-.614.901-.738 1.5-.102.108-.226.216-.335.317-.416.374-.869.8-.89 1.34 0 0-.015.195.196.21a.621.621 0 0 0 .212-.058c.08-.029.16-.065.219-.058a.154.154 0 0 1 .124.13l-.474.692c-.183.288-.103.591-.03.887.051.166.03.288.073.432.117.346.54.505.883.505.62-.029 1.183-.23 1.73-.425.095-.037.197-.073.292-.101.599-.253 1.401-.31 2.35-.152.767-.05 1.343-.548 1.898-1.03.233 0 .482.144.737.41.825.88 1.84 1.305 3.102 1.305h.277c.132-.043.168-.1.175-.187.008-.101-.065-.195-.211-.26l-.708-.368c-.562-.353-1.175-.778-1.35-1.34-.183-.599-.526-1.212-.774-1.615a4.54 4.54 0 0 0-.16-.238 3.162 3.162 0 0 1-.278-.44c.766.267 1.197.83 1.715 1.766.387.692 1.387 1.45 2.343 1.45.124 0 .248-.015.365-.037.102-.021.168-.086.182-.173.015-.08 0-.151-.087-.194l.036-.008ZM33.243 45.866c-.022.072-.065.123-.116.123-.022 0-.073-.008-.095-.108-.197-1.01-.321-1.5-.555-1.968-.073-.152-.168-.274-.248-.383-.168-.23-.321-.432-.153-.699.05-.08.167-.13.306-.13.066 0 .124.015.183.036.197.094.386.325.584.721.489.995.102 2.394.102 2.408h-.008Zm6.408 10.035s-.029.288-.167.404c-.139.122-.62.187-.876.18-.256-.007-.343-.043-.394-.123-.059-.086.036-.26.036-.26.03-.064.329-.677.934-.835 0 0 .198-.073.38.021.182.087.095.548.087.613Zm1.745-3.958c-.037.23-.095.346-.124.404-.03.058-.088.18-.263.18-.19 0-.175-.223-.182-.252 0 0-.022-.62-.146-.88-.132-.28-.76-1.081-1.124-1.052-.095.007-.329.151-.504.375-.212.274-.212.31-.277.346-.066.043-.154.021-.183-.144-.029-.159-.058-.296.015-.606.073-.31.153-.375.248-.598 0 0 .19-.433.263-.541.197-.296.46-.274.46-.274.072 0 .291-.022.54.274.277.346.219.317.299.44.08.122.16.252.394.497.233.245.489.735.555 1.038.073.303.065.555.029.786v.007ZM26.302 56.99c.103.144.19.346.285.547.146.318.27.584.416.635a.606.606 0 0 0 .204.029c.329 0 .796-.18 1.124-.433.19-.159.125-.26.044-.397a1.039 1.039 0 0 1-.087-.158c-.088-.173-.14-.346-.19-.505-.095-.317-.168-.584-.511-.54-.49.072-.97.1-1.496.1 0 0-.175 0-.227.116-.058.13.073.252.22.382.08.072.16.151.218.23v-.007ZM94.953 60.435a1.315 1.315 0 0 1-.124-.302c-.03-.145-.051-.296-.073-.44-.03-.238-.059-.462-.132-.635a.65.65 0 0 0-.576-.367.59.59 0 0 0-.241.057c-.358.18-.57.368-.51.765.196.576.291 1.002.422 1.571.015.087.073.375.212.375h.03l1.028-.332a.177.177 0 0 0 .11-.093c.058-.137-.051-.36-.154-.584l.008-.015Zm-1.526-2.508c-.204-.296-.569-.534-.854-.721a4.602 4.602 0 0 1-.328-.23l-.058-.044a.347.347 0 0 0-.234-.087c-.328 0-.679.39-.686.52-.007.194.27.54.635.965l.08.094c.183.216.387.332.599.353.212 0 .38-.072.562-.238.131-.122.43-.425.299-.612h-.015Zm-24.129-1.478a5.014 5.014 0 0 1-.562.036h-.504c-.116 0-.21.007-.306.022h-.022l-.007.021c-.015.029-.38.656-.328 1.045.05.426.489.512.824.577.117.022.256.05.394.05.241 0 .395-.079.475-.237.197-.512.314-.923.372-1.312a.126.126 0 0 0-.03-.123c-.058-.065-.167-.08-.233-.08h-.08.007Zm23.327 2.992-.015-.03h-.03c-.59.037-.963-.44-1.32-.9-.117-.152-.227-.296-.35-.419a5.729 5.729 0 0 0-.57-.547c-.212-.18-.387-.34-.46-.483-.087-.173-.175-.505-.262-.83-.066-.23-.124-.446-.176-.598-.014-.029-.021-.057-.036-.093-.11-.282-.24-.635-.613-.7-.19-.029-.387-.036-.584-.043-.54-.022-1.08-.115-1.358-.498-.255-.353-.153-.677 0-1.023.066-.151.11-.281.146-.425.198-.642.256-1.435.11-1.997a3.718 3.718 0 0 0-.08-.267c-.08-.23-.168-.584-.11-.692.058-.108.124-.13.226-.13.095 0 .205.029.307.058.073.021.131.029.197.05.27.065.664.137 1.03.137.605 0 1.24-.13 1.78-.36 1.036-.498 2.058-1.615 2-3-.139-1.405-1.015-2.76-2.686-4.144a.84.84 0 0 0-.124-.101c-.22-.18-.482-.397-.49-.599-.007-.201.512-.317.84-.396.073-.014.146-.036.204-.05l.088-.022c.416-.108.847-.216 1.197-.462 1.19-.792 1.146-2.191 1.014-2.955 0-.022-.014-.043-.014-.072-.022-.101-.051-.224-.146-.224-.03 0-.058.015-.088.044a1.377 1.377 0 0 0-.11.1c-.138.13-.291.274-.459.368-.38.224-.832.317-1.277.404-.278.057-.57.115-.84.209-1.182.404-1.919.995-2.182 1.766-.138.397-.066.901.205 1.384.386.606.948 1.14 1.489 1.651.853.807 1.737 1.644 1.94 2.783.11.663-.16 1.218-.831 1.701-.35.21-.796.317-1.3.317-.612 0-1.27-.166-1.81-.447-.693-.346-1.364-.785-2.014-1.21-.978-.642-1.985-1.313-3.102-1.666-.489-.216-1.021-.325-1.54-.425-.737-.152-1.503-.303-2.116-.779a13.377 13.377 0 0 1-.62-.433c-.555-.396-1.132-.807-1.781-.973-.241-.08-.482-.115-.716-.151-.357-.05-.693-.101-1-.317a21.143 21.143 0 0 0-.423-.303c-.518-.375-1.058-.764-1.591-1.024-.92-.454-1.905-.685-3-.922-.35-.08-.569-.347-.795-.62-.154-.188-.314-.383-.519-.512-.846-.663-1.612-1.103-2.598-1.103-.095 0-.182 0-.277.014-.518.036-1.022.425-1.365.714-.985.85-2.044 1.615-3.073 2.343-1.525 1.088-3.109 2.22-4.46 3.676-1.327 1.355-1.81 3.042-2.276 4.679a26.86 26.86 0 0 1-.212.72c-.124.448-.24.91-.35 1.356-.606 2.415-1.241 4.823-3.679 6.387-.16.101-.102.303.044.36.066.022 1.226.368 2.11-.648.634-.736.956-1.45 1.7-2.235.022-.022.11-.1.182-.087.051.015.073.044.051.138-.087.317-.284.583-.474.85-.19.274-.387.555-.489.88-.233.692-.89 1.254-1.467 1.744 0 0-.095.058-.146.123-.051.065-.051.093-.051.093-.015.152.11.245.35.26 1.365 0 2.343-.959 3.285-1.889.044-.043.087-.057.16-.057.051 0 .088 0 .153.021.066.029.205.173.322.267.306.274.627.548 1.036.634h.015a9.713 9.713 0 0 1 1.408-.122c.132 0 .263 0 .373.014.496.151 1 .332 1.481.512.343.13.694.26 1.044.375h.014c.453-.015.781-.433 1.022-.808.11-.26.059-.519.008-.77-.03-.152-.059-.304-.052-.448.088-.043.197-.036.322-.014.109.014.27 0 .32-.008.117-.014.249-.15.212-.331-.087-.454-.32-.728-.547-1.074-.197-.296-.387-.57-.482-.887-.153-.41-.467-.757-.78-1.089-.358-.382-.694-.75-.796-1.21 0 0-.03-.102 0-.138.029-.036.131 0 .131 0 .16.116.329.253.49.383.517.418 1.05.843 1.707.944.606.058 1.27.137 1.92.08.175-.03.255-.174.219-.318-.256-.54-.526-1.125-.687-1.759-.138-.476-.438-1.737-.13-2.682.028-.093.094-.122.152-.122h.022c.102.029.175.144.19.245v.122c.102 1.29.19 2.51.985 3.554.212.332.518.512.818.685.204.123.438.224.584.411.167.21.197.57.08.793l-.978 1.428c-.234.324-.453.677-.54 1.03-.073.36-.044.714-.015 1.046v.079s-.044-.036-.066-.08c-.394-.706-.474-1.304-.277-1.766.132-.295.927-1.412 1.16-1.78.074-.115.132-.238.074-.317-.08-.101-.68-.354-.832-.354h-.03c-.138.036-.233.166-.313.282-.015.021-.037.05-.052.079l-1.211 2.17-.03.08c-.072.215-.13.403-.072.655.065.325.168.678.248.93.022.072.044.144.058.216.11.375.212.728.38.93.11.123.24.18.416.18.087 0 .182-.014.277-.028.153-.022.314-.044.438-.015.183.044.307.18.438.317.131.145.27.289.474.346.373.123.767.224 1.146.325.504.13 1.03.267 1.526.454.277.087.584.173.876.173.32 0 .518-.087.802-.317.395-.317.519-.627.62-1.074.081-.411.22-.44.519-.454.146-.008.168 0 .314-.05.153-.051.591-.578.817-1.01a9.32 9.32 0 0 1 .19-.317.496.496 0 0 0 .095-.274c0-.217-.183-.281-.3-.289h-.072s-1.292-.007-1.643 0c-.532.03-.759.534-.948.974-.073.173-.139.331-.227.475-.138.253-.416.404-.751.397-.095 0-.314-.058-.431-.087-.693-.166-1.416-.346-1.708-1.023-.03-.116-.073-.36.102-.563.373-.425.862-.966 1.365-1.355.7-.144 1.401-.656 1.788-1.305.08-.108.124-.238.16-.367.067-.195.125-.375.3-.49.117-.058.205-.037.226.057.066.36-.073.707-.204 1.045-.03.08-.058.152-.088.224l-.022.057h.059c.19.022.394.037.591.037.715 0 1.401-.123 2.066-.238.657-.116 1.335-.238 2.036-.238h.226c.314 0 .613.029.905.05.285.03.584.05.883.05.11 0 .205 0 .3-.007.897-.043 1.547-.446 1.744-1.08.182-.541.168-1.479-.059-2.79-.014-.066-.014-.102-.021-.109v-.029c0-.05 0-.1.065-.13.08-.043.175 0 .212.109.343.937.54 2.025.642 2.768.117.72.424 1.456.942 2.242.642.944 1.7 1.492 2.905 1.492.277 0 .562-.05.839-.086.197-.03.263-.015.394-.015 1.525 0 2.861.656 3.846 1.889 0 0 .022.022.015.058 0 .05-.08.1-.146.072l-.131-.101c-.862-.663-1.752-1.341-2.869-1.478a3.507 3.507 0 0 0-.627-.05c-.321 0-.643.036-.95.072a7.606 7.606 0 0 1-.89.065c-.38 0-.7-.058-1.014-.18-1.285-.419-2.336-1.882-2.671-2.79a.157.157 0 0 0-.139-.087.218.218 0 0 0-.11.036c-.146.094-.175.144-.197.23-.022.08.103.729.161 1.01.168.692.285 1.507 1.321 2.177.686.44.89.613 1.65.728.13.022.445.007.569-.022a4.55 4.55 0 0 1 .992-.108c1.059 0 2.139.354 3.044 1.01.153.086.292.201.43.317.198.166.395.331.635.418.154.058.314.086.482.094.409 0 .511-.123.803-.267a.82.82 0 0 1 .343-.087c.329 0 .511.253.745.577.138.195.299.411.51.606.3.288.716.324 1.037.324.175 0 .358-.014.533-.022.168-.014.372-.014.481-.028.11-.015.16-.03.16-.03V61.2a6.305 6.305 0 0 0-.525-1.803l.03.044Zm-34.318-3.028c-.059.108-.205.166-.394.166a.85.85 0 0 1-.446-.123c-.248-.173-.386-.461-.408-.836 0-.087-.008-.173.11-.267.058-.036.094-.036.167-.036.233 0 .606.151.81.39.015.02.321.425.168.699l-.007.007Zm.335-5.335c-.087.115-.219.195-.35.13-.124-.043-.233-.195-.3-.317-.087-.145-.152-.274-.35-.26h-.029c-.175.015-.306.101-.445.21-.073.057-.35.259-.423.324-.38.317-.767.648-.861 1.095a5.977 5.977 0 0 0-.051.238c-.03.159-.059.318-.19.404h-.015s-.036.014-.058.014a.26.26 0 0 1-.168-.064c-.051-.044-.08-.08-.08-.152-.066-.771.197-1.463.744-1.954.35-.288.642-.648.912-.994.132-.173.27-.346.416-.512.11-.108.285-.015.584.303.124.13.511.778.686 1.203.066.188-.022.332-.022.332Zm6.438-8.939c-.146.137-.3.274-.46.418-.547.49-1.11 1.002-1.482 1.579a4.452 4.452 0 0 0-.43.771c-.015.03-.044.087-.102.087a.118.118 0 0 1-.08-.036c-.11-.101-.015-.83.116-1.19.3-.807.985-1.643 1.883-2.306a.664.664 0 0 1 .328-.094c.168 0 .3.079.35.209.11.18.066.382-.123.57v-.008Z"/></g><defs><clipPath id="a"><path fill="#fff" d="M0 0h96v96H0z"/></clipPath></defs></svg>