<svg xmlns="http://www.w3.org/2000/svg" width="96" height="96" fill="none"><path fill="#000" d="M81.17 33.987a35.872 35.872 0 0 0-7.714-11.443A35.898 35.898 0 0 0 48 12c-4.86 0-9.575.952-14.013 2.83a35.872 35.872 0 0 0-11.443 7.714 35.883 35.883 0 0 0-7.714 11.443A35.765 35.765 0 0 0 12 48c0 4.86.952 9.575 2.83 14.013a35.872 35.872 0 0 0 7.714 11.443A35.898 35.898 0 0 0 48 84c4.86 0 9.575-.952 14.013-2.83a35.872 35.872 0 0 0 11.443-7.714A35.898 35.898 0 0 0 84 48c0-4.86-.952-9.575-2.83-14.013Z"/><path fill="#fff" d="M33.647 67.792c-.339 0-.607.095-.803.284a.904.904 0 0 0-.294.676c0 .262.061.453.184.572.124.12.463.302 1.017.55.555.246.935.506 1.139.78.204.273.306.672.306 1.196 0 .872-.267 1.541-.803 2.01-.536.471-1.258.707-2.167.707-.363 0-.744-.04-1.145-.117a7.333 7.333 0 0 1-.936-.23l-.323-.127.265-1.145c.871.154 1.555.23 2.052.23.497 0 .862-.086 1.093-.259.231-.174.346-.468.346-.884 0-.224-.067-.395-.202-.514-.134-.12-.464-.299-.988-.537-.524-.24-.897-.501-1.12-.787-.224-.284-.336-.682-.336-1.19 0-.748.243-1.364.728-1.85.485-.485 1.132-.728 1.942-.728.37 0 .757.037 1.16.11.406.074.716.144.932.214l.323.115L35.728 68c-.847-.138-1.542-.207-2.08-.207v-.001ZM34.83 74.426l3.537-7.86h2.751l-.243 7.86H39.28l.046-1.364h-2.288l-.613 1.364H34.83Zm4.473-6.472-1.664 3.722h1.745l.163-3.722h-.244ZM43.346 71.755a3.45 3.45 0 0 0-.104.792c0 .235.079.4.237.492.158.092.435.137.832.137.397 0 .695-.106.896-.317.2-.213.358-.58.474-1.105l1.202-5.188h1.595l-1.202 5.188c-.223.987-.588 1.702-1.092 2.145-.505.443-1.173.665-2.006.665-1.68 0-2.52-.594-2.52-1.78 0-.4.05-.83.15-1.283l1.145-4.936h1.596l-1.202 5.189-.001.001ZM52.276 66.567c1.371 0 2.057.565 2.057 1.699 0 .501-.107.912-.323 1.235-.216.325-.54.617-.97.88.3.177.5.37.6.577.1.21.15.47.15.786 0 .772-.267 1.41-.802 1.92-.536.507-1.301.761-2.294.761h-2.96l1.816-7.86h2.728l-.002.002Zm-.879 4.566h-1.306l-.451 1.93h1.363c.347 0 .624-.12.833-.359.207-.239.311-.547.311-.924 0-.433-.25-.647-.75-.647Zm.625-3.203H50.83l-.44 1.873h1.19c.316 0 .583-.114.798-.34.216-.227.324-.52.324-.874 0-.44-.227-.659-.681-.659ZM54.014 74.426l1.803-7.86h4.612l-.324 1.387H57.1l-.428 1.85h2.38l-.323 1.386h-2.37l-.428 1.849h3.018l-.312 1.386h-4.624v.002ZM63.524 66.567c.832 0 1.445.174 1.838.525.392.35.59.903.59 1.659s-.166 1.386-.498 1.895c-.331.51-.751.864-1.26 1.064l.636 2.716h-1.595l-.52-2.497h-1.098l-.578 2.497h-1.596l1.816-7.86h2.265Zm.422 3.502c.243-.332.364-.698.364-1.098 0-.4-.066-.675-.197-.821-.131-.147-.358-.22-.682-.22h-.89l-.613 2.636h1.029c.416 0 .745-.166.987-.497h.002Z"/><path fill="#00E701" fill-rule="evenodd" d="M30.43 20.965h13.362v8.908h4.454V25.42h4.453v-4.453h13.363v13.362h-4.454v4.454h-4.454v4.453h4.454v4.454h4.454v13.362H52.699v-4.453h-4.453v-4.454h-4.454v8.908H30.43V20.965Z" clip-rule="evenodd"/></svg>